#tb 0: 1/25
#media_type 0: video
#codec_id 0: rawvideo
#dimensions 0: 640x272
#sar 0: 0/1
0,          0,          0,        1,   261120, 0xc50dec2b
0,          1,          1,        1,   261120, 0xaa8d4441
0,          2,          2,        1,   261120, 0x932b0d44
0,          3,          3,        1,   261120, 0x125e1af7
0,          4,          4,        1,   261120, 0x09a763a5
0,          5,          5,        1,   261120, 0x56939852
0,          6,          6,        1,   261120, 0x0eda6d35
0,          7,          7,        1,   261120, 0x2f0d3869
0,          8,          8,        1,   261120, 0xe177c34c
0,          9,          9,        1,   261120, 0x5d4e833a
0,         10,         10,        1,   261120, 0x42e26e7a
0,         11,         11,        1,   261120, 0xf5a60b4c
0,         12,         12,        1,   261120, 0x29938341
0,         13,         13,        1,   261120, 0x0a9ebb80
0,         14,         14,        1,   261120, 0xd18c6a11
0,         15,         15,        1,   261120, 0x4b8212ac
0,         16,         16,        1,   261120, 0x7902aabc
0,         17,         17,        1,   261120, 0x4babac44
0,         18,         18,        1,   261120, 0xf33efa46
0,         19,         19,        1,   261120, 0x110dd40a
0,         20,         20,        1,   261120, 0xae327a8a
0,         21,         21,        1,   261120, 0xab757d75
0,         22,         22,        1,   261120, 0xfbd1402d
0,         23,         23,        1,   261120, 0x4f2c5d31
0,         24,         24,        1,   261120, 0xc7ea2149
0,         25,         25,        1,   261120, 0x86072cf7
0,         26,         26,        1,   261120, 0x37c2f2ed
0,         27,         27,        1,   261120, 0x1d51ee83
0,         28,         28,        1,   261120, 0x72291b8b
0,         29,         29,        1,   261120, 0xe9c8ffaf
0,         30,         30,        1,   261120, 0x657a1615
0,         31,         31,        1,   261120, 0x6f832019
0,         32,         32,        1,   261120, 0xf4445a22
0,         33,         33,        1,   261120, 0x105306f0
0,         34,         34,        1,   261120, 0x34c0c36b
0,         35,         35,        1,   261120, 0x7767be18
0,         36,         36,        1,   261120, 0x88a7eaeb
0,         37,         37,        1,   261120, 0x797e69e4
0,         38,         38,        1,   261120, 0x78901f02
0,         39,         39,        1,   261120, 0xbc91758e
0,         40,         40,        1,   261120, 0x35d47b24
0,         41,         41,        1,   261120, 0xaf0ebc82
0,         42,         42,        1,   261120, 0x40e63004
0,         43,         43,        1,   261120, 0x70d1c5c1
0,         44,         44,        1,   261120, 0x8aea2b70
0,         45,         45,        1,   261120, 0x51f3cd81
0,         46,         46,        1,   261120, 0x8f8584b7
0,         47,         47,        1,   261120, 0x921541fb
0,         48,         48,        1,   261120, 0xddd3f1ea
0,         49,         49,        1,   261120, 0x6be2e960
0,         50,         50,        1,   261120, 0x72997a1f
0,         51,         51,        1,   261120, 0xe70fc009
0,         52,         52,        1,   261120, 0x816a0687
0,         53,         53,        1,   261120, 0x2aa79e82
0,         54,         54,        1,   261120, 0x85f2fe5c
0,         55,         55,        1,   261120, 0x000dd8b6
0,         56,         56,        1,   261120, 0x1be19dd4
0,         57,         57,        1,   261120, 0xadea80e5
0,         58,         58,        1,   261120, 0x0cc2204f
0,         59,         59,        1,   261120, 0xd62968a8
0,         60,         60,        1,   261120, 0x0afc75c2
0,         61,         61,        1,   261120, 0x82341f09
0,         62,         62,        1,   261120, 0xbf7e66cd
0,         63,         63,        1,   261120, 0x8f3491df
0,         64,         64,        1,   261120, 0xc316d383
0,         65,         65,        1,   261120, 0x3de7f632
0,         66,         66,        1,   261120, 0xda55cfb0
0,         67,         67,        1,   261120, 0xbd88bb46
0,         68,         68,        1,   261120, 0x75444b17
0,         69,         69,        1,   261120, 0x798cc498
0,         70,         70,        1,   261120, 0xf9a60fa6
0,         71,         71,        1,   261120, 0xbd8debd7
0,         72,         72,        1,   261120, 0x7c890029
0,         73,         73,        1,   261120, 0x7a75e44a
0,         74,         74,        1,   261120, 0x1f04611c
0,         75,         75,        1,   261120, 0x96b3ee93
0,         76,         76,        1,   261120, 0x7fc11f39
0,         77,         77,        1,   261120, 0xe87d6864
0,         78,         78,        1,   261120, 0x6797d904
0,         79,         79,        1,   261120, 0x9e3e7bde
0,         80,         80,        1,   261120, 0xc31a8039
0,         81,         81,        1,   261120, 0xe3ef4cf7
0,         82,         82,        1,   261120, 0x83c56fc9
0,         83,         83,        1,   261120, 0xb304f7aa
0,         84,         84,        1,   261120, 0x039a7080
0,         85,         85,        1,   261120, 0xffb08224
0,         86,         86,        1,   261120, 0xa7be783a
0,         87,         87,        1,   261120, 0x572beff3
0,         88,         88,        1,   261120, 0x1bc59ae8
0,         89,         89,        1,   261120, 0x11c8feb4
0,         90,         90,        1,   261120, 0xe2398651
0,         91,         91,        1,   261120, 0x37c3efba
0,         92,         92,        1,   261120, 0xb32f0dd4
0,         93,         93,        1,   261120, 0x66880c50
0,         94,         94,        1,   261120, 0x4f7392c8
0,         95,         95,        1,   261120, 0x3d5c08f6
0,         96,         96,        1,   261120, 0xfd129211
0,         97,         97,        1,   261120, 0x9b396ebe
0,         98,         98,        1,   261120, 0x75ab9a4a
0,         99,         99,        1,   261120, 0xf8c4e7ea
0,        100,        100,        1,   261120, 0xdd48c7c3
0,        101,        101,        1,   261120, 0xdebf20e6
0,        102,        102,        1,   261120, 0x35c32091
0,        103,        103,        1,   261120, 0xce5a49c7
0,        104,        104,        1,   261120, 0x69fc8e0d
0,        105,        105,        1,   261120, 0x43a08b41
0,        106,        106,        1,   261120, 0x01a0513c
0,        107,        107,        1,   261120, 0x1d3f490a
0,        108,        108,        1,   261120, 0xb44df252
0,        109,        109,        1,   261120, 0x1259753e
0,        110,        110,        1,   261120, 0x4a1538d6
0,        111,        111,        1,   261120, 0xd5ed4bd5
0,        112,        112,        1,   261120, 0xa21590b5
0,        113,        113,        1,   261120, 0xfb2de1f7
